{"glyphs":{"0":{"ha":861,"x_min":0,"x_max":0,"o":"m 614 1056 b 893 744 792 1056 893 910 b 378 -14 893 343 643 -14 b 99 297 200 -14 99 132 b 614 1056 99 699 349 1056 m 614 1032 b 235 256 390 1032 235 521 b 378 10 235 136 257 10 b 757 786 601 10 757 521 b 614 1032 757 906 735 1032 "},"1":{"ha":604,"x_min":0,"x_max":0,"o":"m 104 28 l 326 1014 l 169 1014 l 169 1042 l 465 1042 l 236 28 l 382 28 l 382 0 l -56 0 l -56 28 "},"2":{"ha":764,"x_min":0,"x_max":0,"o":"m 167 778 b 221 808 182 796 197 808 b 303 731 261 808 303 779 b 215 642 303 675 264 642 b 126 735 167 642 126 676 b 465 1056 126 897 275 1056 b 746 833 633 1056 746 972 b 501 507 746 694 583 572 l 50 125 l 574 125 l 596 229 l 624 229 l 575 0 l -57 0 l -37 90 l 331 411 b 607 806 449 514 607 675 b 421 1013 607 950 543 1013 b 167 778 304 1013 179 899 "},"3":{"ha":724,"x_min":0,"x_max":0,"o":"m 7 189 b 90 279 7 246 42 279 b 165 201 132 279 165 251 b 86 125 165 157 126 125 b 56 131 71 125 61 129 b 265 24 63 92 133 24 b 528 319 431 24 528 189 b 303 550 528 422 496 550 l 303 576 b 597 863 524 576 597 774 b 439 1018 597 965 549 1018 b 251 913 350 1018 272 965 b 281 915 257 914 269 915 b 360 839 321 915 360 888 b 281 761 360 783 315 761 b 201 847 239 761 201 790 b 488 1054 201 947 318 1054 b 738 863 614 1054 738 1015 b 411 564 738 740 650 597 b 668 319 614 542 668 451 b 293 -14 668 139 489 -14 b 7 189 96 -14 7 89 "},"4":{"ha":826,"x_min":0,"x_max":0,"o":"m 708 0 l 340 0 l 340 28 l 464 28 l 518 285 l 49 285 l 674 1042 l 813 1042 l 657 313 l 813 313 l 813 285 l 651 285 l 596 28 l 708 28 m 524 313 l 667 988 l 110 313 "},"5":{"ha":694,"x_min":0,"x_max":0,"o":"m 653 389 b 244 -14 653 181 454 -14 b 0 179 103 -14 0 79 b 79 265 0 236 38 265 b 158 188 114 265 158 243 b 79 111 158 139 119 111 b 49 117 64 111 54 115 b 231 15 63 85 114 15 b 507 389 410 15 507 231 b 347 619 507 519 457 619 b 131 524 271 619 179 583 l 93 524 l 274 1042 l 728 1042 l 743 1118 l 771 1118 l 729 917 l 260 917 l 135 563 b 378 653 189 618 274 653 b 653 389 546 653 653 569 "},"6":{"ha":778,"x_min":0,"x_max":0,"o":"m 750 417 b 339 -14 750 208 549 -14 b 69 306 185 -14 69 83 b 785 1056 69 601 392 1056 l 785 1032 b 217 393 474 1032 238 638 b 529 681 264 536 369 681 b 750 417 642 681 750 611 m 611 417 b 499 640 611 561 581 640 b 210 272 340 640 226 425 l 208 236 b 343 14 208 106 247 14 b 611 417 494 14 611 244 "},"7":{"ha":701,"x_min":0,"x_max":0,"o":"m 206 92 b 449 553 206 188 343 399 b 711 910 511 646 626 799 l 208 910 l 186 806 l 158 806 l 208 1042 l 840 1042 b 485 553 840 1042 610 729 b 300 225 392 422 300 288 b 386 81 300 165 386 172 b 297 -14 386 29 358 -14 b 206 92 250 -14 206 24 "},"8":{"ha":764,"x_min":0,"x_max":0,"o":"m 42 208 b 335 538 42 360 138 511 b 167 729 224 564 167 640 b 507 1056 167 896 311 1056 b 764 826 675 1056 764 938 b 493 533 764 681 653 561 b 694 319 625 510 694 433 b 340 -14 694 153 578 -14 b 42 208 144 -14 42 69 m 306 736 b 424 549 306 661 328 549 b 625 819 547 549 625 689 b 507 1028 625 894 603 1028 b 306 736 383 1028 306 867 m 181 222 b 340 14 181 119 231 14 b 556 306 478 14 556 175 b 396 521 556 408 506 521 b 181 222 258 521 181 353 "},"9":{"ha":778,"x_min":0,"x_max":0,"o":"m 708 736 b -7 -14 708 440 386 -14 l -7 10 b 561 649 304 10 540 404 b 249 361 514 506 408 361 b 28 625 136 361 28 431 b 439 1056 28 833 229 1056 b 708 736 593 1056 708 958 m 167 625 b 279 401 167 481 197 401 b 568 769 438 401 551 617 l 569 806 b 435 1028 569 936 531 1028 b 167 625 283 1028 167 797 "}," ":{"ha":347,"x_min":0,"x_max":0,"o":""},"!":{"ha":443,"x_min":0,"x_max":0,"o":"m 456 957 b 249 289 428 810 304 497 l 221 289 b 292 915 263 497 292 740 b 381 1053 292 993 313 1053 b 456 957 429 1053 467 1014 m 97 68 b 179 150 97 114 133 150 b 261 68 225 150 261 114 b 179 -14 261 22 225 -14 b 97 68 133 -14 97 22 "},"'":{"ha":278,"x_min":0,"x_max":0,"o":"m 335 957 b 214 678 308 853 256 817 l 186 678 b 196 946 221 803 211 842 b 194 971 194 956 194 963 b 271 1056 194 1025 231 1056 b 339 985 311 1056 339 1025 b 335 957 339 976 338 967 "},"\"":{"ha":514,"x_min":0,"x_max":0,"o":"m 571 957 b 450 678 544 853 492 817 l 422 678 b 432 946 457 803 447 842 b 431 971 431 956 431 963 b 507 1056 431 1025 467 1056 b 575 985 547 1056 575 1025 b 571 957 575 976 574 967 m 335 957 b 214 678 308 853 256 817 l 186 678 b 196 946 221 803 211 842 b 194 971 194 956 194 963 b 271 1056 194 1025 231 1056 b 339 985 311 1056 339 1025 b 335 957 339 976 338 967 "},"#":{"ha":875,"x_min":0,"x_max":0,"o":"m 317 368 l 392 694 l 161 694 l 161 722 l 399 722 l 474 1049 l 503 1049 l 428 722 l 675 722 l 750 1047 l 779 1049 l 704 722 l 911 722 l 911 694 l 697 694 l 622 368 l 842 368 l 842 340 l 617 340 l 536 -7 l 507 -8 l 588 340 l 340 340 l 260 -7 l 231 -7 l 311 340 l 92 340 l 92 368 m 593 368 l 669 694 l 421 694 l 346 368 "},"$":{"ha":771,"x_min":0,"x_max":0,"o":"m 514 1153 l 492 1056 l 496 1056 b 579 1044 525 1056 553 1051 l 604 1153 l 639 1153 l 611 1035 b 785 840 710 1000 785 922 b 688 726 785 776 749 726 b 599 818 646 726 599 757 b 692 908 599 874 644 908 b 729 896 707 908 724 897 b 606 1007 718 936 672 982 l 511 601 b 715 292 615 544 715 471 b 368 -21 715 101 558 -15 l 347 -111 l 313 -111 l 333 -21 b 246 -7 303 -19 274 -14 l 222 -111 l 188 -111 l 214 4 b 42 201 107 46 42 131 b 139 315 42 265 78 315 b 228 224 181 315 228 285 b 135 133 228 168 182 133 b 90 143 113 133 96 142 b 221 35 118 110 157 63 l 329 500 b 167 757 242 547 167 611 b 456 1053 167 911 303 1035 l 479 1153 m 510 1024 b 483 1022 501 1024 492 1024 l 400 661 b 481 618 426 647 453 633 l 572 1017 b 510 1024 553 1021 532 1024 m 278 840 b 371 681 278 764 317 718 l 449 1019 b 278 840 339 1001 278 933 m 253 22 b 340 8 278 15 307 10 l 440 444 b 360 485 414 458 386 471 l 253 22 m 590 229 b 471 428 590 333 539 388 l 375 8 b 590 229 510 18 590 111 "},"%":{"ha":1389,"x_min":0,"x_max":0,"o":"m 382 444 b 174 653 253 444 174 510 b 507 1056 174 879 322 1056 b 715 847 636 1056 715 990 b 382 444 715 621 567 444 m 1243 1042 l 306 0 l 268 0 l 1206 1042 m 507 1028 b 313 625 404 1028 313 808 b 382 472 313 539 335 472 b 576 875 485 472 576 692 b 507 1028 576 961 554 1028 m 1014 -14 b 806 194 885 -14 806 51 b 1139 597 806 421 954 597 b 1347 389 1268 597 1347 532 b 1014 -14 1347 163 1199 -14 m 1139 569 b 944 167 1036 569 944 350 b 1014 14 944 81 967 14 b 1208 417 1117 14 1208 233 b 1139 569 1208 503 1186 569 "},"&":{"ha":1096,"x_min":0,"x_max":0,"o":"m 971 97 b 764 -14 944 36 874 -14 b 617 46 697 -14 651 6 b 332 -14 526 8 429 -14 b 28 222 133 -14 28 79 b 400 567 28 428 215 496 l 367 653 b 331 810 343 711 331 761 b 651 1056 331 949 463 1056 b 882 896 772 1056 882 1007 b 551 600 882 731 719 669 l 731 133 b 1051 514 907 238 1039 396 l 1054 538 b 974 465 1050 510 1021 465 b 900 544 918 465 900 510 b 986 624 900 586 935 624 b 1082 522 1053 624 1082 572 b 739 106 1082 401 939 224 b 822 22 756 60 775 22 b 950 104 879 22 922 56 l 971 97 m 542 625 b 751 903 660 683 751 760 b 638 1032 751 961 711 1032 b 476 861 531 1032 476 949 b 531 653 476 813 493 750 m 360 22 b 599 69 440 22 522 40 b 571 126 589 86 579 106 l 411 538 b 181 208 283 472 181 382 b 360 22 181 150 215 22 "},"(":{"ha":503,"x_min":0,"x_max":0,"o":"m 379 -236 b 114 257 222 -167 114 17 b 671 1111 114 664 403 1000 l 683 1088 b 242 229 469 976 242 565 b 392 -212 242 -24 289 -115 "},")":{"ha":503,"x_min":0,"x_max":0,"o":"m 221 1111 b 486 618 378 1042 486 858 b -71 -236 486 211 197 -125 l -83 -212 b 358 646 131 -101 358 310 b 208 1088 358 899 311 990 "},"*":{"ha":882,"x_min":0,"x_max":0,"o":"m 406 454 b 507 697 433 551 483 592 b 283 517 393 628 360 578 b 154 521 239 486 182 471 b 215 635 129 565 163 613 b 494 724 307 672 376 660 b 286 793 385 783 378 757 b 225 913 232 817 200 868 b 357 926 251 961 310 957 b 514 742 435 864 401 813 b 506 990 536 876 506 890 b 583 1100 506 1056 535 1100 b 642 990 632 1100 660 1053 b 540 747 614 893 564 853 b 764 928 654 817 688 867 b 893 924 808 958 865 974 b 832 810 918 879 885 832 b 553 721 740 772 671 785 b 761 651 663 661 669 688 b 822 532 815 628 847 576 b 693 522 796 485 738 493 b 533 703 615 585 646 632 b 542 454 511 568 542 554 b 464 344 542 389 513 344 b 406 454 415 344 388 392 "},"+":{"ha":736,"x_min":0,"x_max":0,"o":"m 394 425 l 129 425 l 129 453 l 401 453 l 464 722 l 494 722 l 432 453 l 699 453 l 699 425 l 425 425 l 363 153 l 332 153 "},",":{"ha":299,"x_min":0,"x_max":0,"o":"m 14 64 b 107 150 14 110 54 150 b 200 43 161 150 200 117 b -51 -217 200 -82 74 -217 l -51 -189 b 163 10 33 -189 144 -104 b 100 -14 147 -6 131 -14 b 14 64 40 -14 14 22 "},"-":{"ha":500,"x_min":0,"x_max":0,"o":"m 449 396 l 449 368 l 115 368 l 115 396 "}}}
